<?xml version="1.0" standalone="no"?>
<!DOCTYPE svg PUBLIC "-//W3C//DTD SVG 20010904//EN"
 "http://www.w3.org/TR/2001/REC-SVG-20010904/DTD/svg10.dtd">
<svg version="1.0" xmlns="http://www.w3.org/2000/svg"
 width="28" height="22" viewBox="0 0 459.000000 437.000000"
 preserveAspectRatio="xMidYMid meet">

<g transform="translate(0.000000,437.000000) scale(0.100000,-0.100000)"
fill="#ffffff" stroke="none">
<path d="M3120 4355 c-252 -40 -456 -168 -604 -380 -136 -194 -185 -431 -136
-665 26 -125 45 -173 123 -305 33 -55 68 -116 79 -135 25 -44 169 -295 183
-318 30 -51 225 -392 252 -441 17 -32 45 -80 62 -107 16 -27 60 -102 98 -166
37 -65 70 -118 73 -118 3 0 38 55 76 122 39 68 108 186 153 263 46 77 99 169
118 205 19 36 49 90 67 120 18 30 94 163 170 295 76 132 155 267 176 300 76
123 130 309 130 450 0 144 -47 325 -116 442 -46 79 -144 192 -221 253 -125
101 -246 153 -428 184 -105 18 -139 18 -255 1z m288 -580 c114 -62 172 -162
172 -296 0 -93 -27 -163 -90 -228 -72 -75 -143 -106 -245 -106 -72 0 -86 4
-143 34 -68 37 -129 98 -158 159 -26 55 -31 186 -9 255 28 91 116 176 215 208
14 5 66 7 115 6 78 -2 97 -7 143 -32z"/>
<path d="M915 1171 c-85 -39 -115 -100 -115 -233 1 -133 33 -195 122 -233 52
-21 284 -21 336 0 89 38 121 100 122 233 0 133 -30 194 -115 233 -58 27 -292
27 -350 0z"/>
<path d="M1715 1171 c-85 -39 -115 -100 -115 -233 1 -133 33 -195 122 -233 52
-21 284 -21 336 0 89 38 121 100 122 233 0 133 -30 194 -115 233 -58 27 -292
27 -350 0z"/>
<path d="M2515 1171 c-85 -39 -115 -100 -115 -233 1 -133 33 -195 122 -233 52
-21 284 -21 336 0 89 38 121 100 122 233 0 133 -30 194 -115 233 -58 27 -292
27 -350 0z"/>
</g>
</svg>
