<?xml version="1.0" standalone="no"?>
<svg version="1.0" xmlns="http://www.w3.org/2000/svg"
 width="28" height="22" viewBox="0 0 260.000000 261.000000">

<g transform="translate(0.000000,261.000000) scale(0.100000,-0.100000)"
fill="#ffffff" stroke="none">
<path d="M1175 2595 c-352 -60 -609 -289 -707 -632 -32 -112 -32 -322 0 -443
30 -112 37 -126 402 -760 172 -300 338 -589 368 -642 31 -54 58 -98 62 -98 3
0 94 156 205 348 109 191 284 496 389 677 193 334 225 403 252 543 40 209 -13
462 -134 638 -140 204 -323 318 -591 368 -97 19 -138 19 -246 1z m267 -558
c48 -24 124 -100 150 -150 18 -34 22 -57 22 -141 0 -118 -18 -168 -84 -235
-66 -66 -138 -95 -235 -95 -72 0 -86 4 -143 34 -83 45 -135 104 -156 179 -18
66 -21 160 -5 212 22 76 116 179 192 207 50 19 214 12 260 -10z"/>
</g>
</svg>
